<svg height="511pt" viewBox="0 -46 511.99919 511" width="511pt" xmlns="http://www.w3.org/2000/svg"><g fill-rule="evenodd"><path d="m227.988281 371.769531c0-41.785156-20.363281-93.226562-73.789062-108.882812-27.199219-7.972657-25.40625-4.027344-43.855469-25.339844l-18.234375-21.058594c-6.339844-7.328125-17.523437-8.132812-24.847656-1.789062-1.402344 1.214843-2.53125 2.578125-3.402344 4.050781l-17.273437-77.386719c-5.332032-23.890625-40.785157-17.082031-36.15625 6.953125l24.382812 126.519532c8.25 42.90625 12.898438 48.746093 45.722656 66.988281l55.753906 29.945312zm0 0" fill="#f4cdac"/><path d="m357.796875 262.882812c-53.425781 15.65625-73.789063 67.101563-73.789063 108.886719h91.703126l55.753906-29.945312c32.824218-18.242188 37.472656-24.082031 45.722656-66.992188l24.382812-126.519531c4.628907-24.03125-30.828124-30.839844-36.160156-6.949219l-17.273437 77.382813c-.867188-1.46875-1.996094-2.832032-3.398438-4.046875-7.328125-6.34375-18.507812-5.539063-24.851562 1.789062l-18.230469 21.058594c-18.449219 21.3125-16.65625 17.367187-43.859375 25.335937zm0 0" fill="#f4cdac"/><path d="m155.640625 391.121094c0-10.652344-8.609375-19.296875-19.25-19.351563h-.105469c-10.6875 0-19.351562 8.664063-19.351562 19.351563 0 10.691406 8.664062 19.355468 19.351562 19.355468 10.691406 0 19.355469-8.667968 19.355469-19.355468zm0 0" fill="#ffba4a"/><path d="m182.03125 371.769531c-10.640625.054688-19.246094 8.699219-19.246094 19.351563 0 10.6875 8.664063 19.355468 19.351563 19.355468 10.691406 0 19.355469-8.664062 19.355469-19.355468 0-10.652344-8.609376-19.296875-19.246094-19.351563zm0 0" fill="#ffba4a"/><path d="m227.882812 371.769531c-10.636718.054688-19.246093 8.699219-19.246093 19.351563 0 10.6875 8.664062 19.355468 19.355469 19.355468 10.6875 0 19.351562-8.664062 19.351562-19.355468 0-10.6875-8.664062-19.351563-19.351562-19.351563-.039063 0-.074219 0-.109376 0zm0 0" fill="#ffba4a"/><path d="m284.007812 371.769531c-10.6875 0-19.351562 8.664063-19.351562 19.351563s8.664062 19.355468 19.351562 19.355468 19.355469-8.664062 19.355469-19.355468c0-10.652344-8.609375-19.296875-19.25-19.351563zm0 0" fill="#ffba4a"/><path d="m329.753906 371.769531c-10.640625.054688-19.246094 8.699219-19.246094 19.351563 0 10.6875 8.664063 19.355468 19.351563 19.355468s19.355469-8.664062 19.355469-19.355468c0-10.652344-8.609375-19.296875-19.25-19.351563zm0 0" fill="#ffba4a"/><path d="m375.605469 371.769531c-10.640625.054688-19.246094 8.699219-19.246094 19.351563 0 10.6875 8.664063 19.355468 19.351563 19.355468s19.355468-8.664062 19.355468-19.355468c0-10.6875-8.664062-19.351563-19.355468-19.351563-.035157 0-.070313 0-.105469 0zm0 0" fill="#ffba4a"/><path d="m271.996094 221.25v-15.429688h15.429687c8.835938 0 16-7.160156 16-16 0-8.832031-7.164062-15.996093-16-15.996093h-15.429687v-13.023438c14.566406-3.121093 27.582031-10.414062 37.738281-20.570312 13.753906-13.753907 22.261719-32.753907 22.261719-53.734375 0-20.984375-8.507813-39.984375-22.261719-53.738282-13.753906-13.753906-32.75-22.257812-53.734375-22.257812s-39.984375 8.507812-53.734375 22.257812c-13.753906 13.753907-22.261719 32.753907-22.261719 53.738282s8.507813 39.980468 22.261719 53.734375c10.152344 10.15625 23.171875 17.449219 37.734375 20.574219v13.019531h-15.425781c-8.835938 0-16 7.164062-16 16 0 8.835937 7.164062 15.996093 16 15.996093h15.425781v15.429688c0 8.835938 7.164062 16 16 16s15.996094-7.164062 15.996094-16zm15.113281-103.644531c-7.957031 7.960937-18.960937 12.886719-31.109375 12.886719s-23.152344-4.925782-31.113281-12.886719c-7.960938-7.960938-12.882813-18.960938-12.882813-31.109375 0-12.152344 4.921875-23.152344 12.882813-31.113282 7.960937-7.960937 18.960937-12.886718 31.113281-12.886718 12.148438 0 23.152344 4.925781 31.109375 12.886718 7.960937 7.960938 12.886719 18.960938 12.886719 31.113282 0 12.148437-4.925782 23.148437-12.886719 31.109375zm0 0" fill="#9b51a0"/></g><path d="m486.6875 225.507812c-5.421875-1.039062-10.664062 2.511719-11.707031 7.933594l-.050781.265625c-1.042969 5.421875 2.507812 10.664063 7.933593 11.707031.636719.121094 1.269531.179688 1.898438.179688 4.699219 0 8.886719-3.328125 9.808593-8.113281l.050782-.261719c1.042968-5.425781-2.507813-10.667969-7.933594-11.710938zm0 0"/><path d="m489.566406 117.136719c-13.433594-2.792969-29.882812 3.984375-33.914062 22.046875l-13.960938 62.554687c-3.328125-1.066406-6.863281-1.5-10.464844-1.246093-7.371093.53125-14.082031 3.886718-18.898437 9.449218l-18.234375 21.0625c-13.210938 15.265625-13.210938 15.265625-27.011719 18.9375-3.21875.855469-7.226562 1.921875-12.09375 3.347656-56.039062 16.421876-78.179687 67.777344-80.726562 110.152344-8.675781 3.0625-15.492188 10.089844-18.261719 18.898438-2.769531-8.808594-9.585938-15.835938-18.261719-18.898438-2.546875-42.375-24.6875-93.730468-80.726562-110.152344-4.867188-1.425781-8.875-2.492187-12.09375-3.347656-13.796875-3.671875-13.796875-3.671875-27.011719-18.9375l-18.234375-21.0625c-4.816406-5.5625-11.527344-8.917968-18.898437-9.449218-3.597657-.257813-7.136719.179687-10.464844 1.246093l-13.960938-62.554687c-4.03125-18.0625-20.480468-24.84375-33.910156-22.046875-13.472656 2.800781-25.296875 15.058593-21.824219 33.070312 1.042969 5.421875 6.289063 8.96875 11.710938 7.925781 5.421875-1.046874 8.96875-6.289062 7.925781-11.710937-1.40625-7.292969 3.90625-9.214844 6.253906-9.707031 1.40625-.289063 8.503906-1.335938 10.324219 6.824218l16.550781 74.144532c-3.195312 8.507812-2.035156 18.683594 3.773438 27.40625 9.585937 14.390625 37.28125 54.644531 41.917968 61.4375 3.113282 4.5625 9.335938 5.734375 13.894532 2.625 4.5625-3.113282 5.738281-9.335938 2.625-13.898438-4.652344-6.816406-32.289063-46.984375-41.796875-61.253906-1.839844-2.761719-3.910157-8.347656.011719-11.742188 1.523437-1.320312 3.492187-1.964843 5.53125-1.820312 2.042968.148438 3.894531 1.070312 5.214843 2.59375l18.230469 21.058594c16.285156 18.8125 19.476562 20.515625 36.992188 25.175781 3.273437.871094 6.984374 1.859375 11.613281 3.214844 45.609375 13.363281 63.90625 55.714843 66.3125 91.152343-5 1.878907-9.355469 5.085938-12.636719 9.1875-5.382812-6.730468-13.65625-11.054687-22.925781-11.054687s-17.542969 4.324219-22.925781 11.054687c-4.839844-6.054687-12.019532-10.15625-20.160157-10.917968l-53.722656-28.855469c-29.398437-16.339844-32.894531-19.523437-40.699219-60.109375l-11.332031-58.804688c-1.042969-5.421874-6.292969-8.964843-11.710937-7.925781-5.421876 1.046875-8.96875 6.289063-7.925782 11.710938l11.332032 58.800781c8.636718 44.925781 14.792968 53.898438 50.683593 73.84375.042969.023438.085938.046875.125.070312l38.734375 20.800782c-4.722656 5.210937-7.601562 12.117187-7.601562 19.6875 0 16.183594 13.167968 29.351562 29.351562 29.351562 9.269532 0 17.542969-4.324218 22.925782-11.054687 5.382812 6.730469 13.65625 11.054687 22.925781 11.054687s17.542969-4.324218 22.925781-11.054687c5.382812 6.730469 13.65625 11.054687 22.925781 11.054687 13.125 0 24.265625-8.660156 28.007813-20.570312 3.742187 11.910156 14.882812 20.570312 28.011718 20.570312 9.269532 0 17.542969-4.324218 22.925782-11.054687 5.382812 6.730469 13.65625 11.054687 22.925781 11.054687 9.265625 0 17.542969-4.324218 22.921875-11.054687 5.386719 6.730469 13.660156 11.054687 22.925781 11.054687 16.1875 0 29.355469-13.167968 29.355469-29.351562 0-7.570313-2.882812-14.476563-7.601562-19.6875l38.730468-20.800782c.042969-.023437.085938-.046874.128906-.070312 35.886719-19.945312 42.046876-28.917969 50.683594-73.84375 1.042969-5.421875-2.507812-10.664062-7.929687-11.707031-5.425781-1.039063-10.667969 2.507812-11.710938 7.933593-7.800781 40.578126-11.296875 43.761719-40.695312 60.101563l-53.722657 28.855469c-8.140624.765625-15.320312 4.867187-20.160156 10.917968-5.382812-6.730468-13.660156-11.050781-22.925781-11.050781-9.269531 0-17.542969 4.320313-22.925781 11.050781-3.28125-4.101562-7.636719-7.308593-12.636719-9.1875 2.40625-35.4375 20.703125-77.789062 66.3125-91.152343 4.625-1.355469 8.339844-2.34375 11.613281-3.214844 17.515625-4.660156 20.707032-6.363281 36.992188-25.171875l18.230468-21.0625c1.320313-1.523438 3.171876-2.445312 5.214844-2.59375 2.046875-.148438 4.007813.5 5.53125 1.820312 3.921875 3.394532 1.851563 8.980469.011719 11.746094-9.503906 14.265625-37.144531 54.4375-41.796875 61.253906-3.113281 4.5625-1.9375 10.78125 2.625 13.894532 4.5625 3.113281 10.785156 1.9375 13.894531-2.625 4.636719-6.792969 32.332031-47.042969 41.921875-61.4375 5.808594-8.71875 6.964844-18.898438 3.769532-27.40625l16.550781-74.144532c1.820312-8.160156 8.921875-7.113281 10.324219-6.824218 2.351562.488281 7.660156 2.414062 6.257812 9.703125l-11.332031 58.804687c-1.046875 5.425782 2.503906 10.667969 7.925781 11.710938 5.421875 1.042968 10.664062-2.5 11.710938-7.925782l11.332031-58.804687c3.472656-18.007813-8.351563-30.265625-21.820313-33.066406zm-353.277344 283.339843c-5.160156 0-9.355468-4.195312-9.355468-9.355468 0-5.148438 4.183594-9.339844 9.332031-9.351563h.011719.023437c5.152344.007813 9.339844 4.199219 9.339844 9.351563 0 5.160156-4.195313 9.355468-9.351563 9.355468zm45.847657 0c-5.15625 0-9.351563-4.195312-9.351563-9.355468 0-5.15625 4.195313-9.351563 9.351563-9.351563 5.160156 0 9.355469 4.195313 9.355469 9.351563 0 5.160156-4.195313 9.355468-9.355469 9.355468zm45.855469 0c-5.160157 0-9.355469-4.195312-9.355469-9.355468 0-5.15625 4.195312-9.351563 9.355469-9.351563 5.15625 0 9.351562 4.195313 9.351562 9.351563 0 5.160156-4.195312 9.355468-9.351562 9.355468zm56.015624 0c-5.15625 0-9.355468-4.195312-9.355468-9.355468 0-5.15625 4.199218-9.351563 9.355468-9.351563s9.355469 4.195313 9.355469 9.351563c0 5.160156-4.195312 9.355468-9.355469 9.355468zm91.703126 0c-5.15625 0-9.355469-4.195312-9.355469-9.355468 0-5.152344 4.191406-9.34375 9.34375-9.351563h.019531.015625c5.148437.011719 9.332031 4.203125 9.332031 9.351563 0 5.160156-4.195312 9.355468-9.355468 9.355468zm-45.851563-18.710937c5.160156 0 9.355469 4.199219 9.355469 9.355469 0 5.160156-4.195313 9.355468-9.355469 9.355468-5.15625 0-9.351563-4.195312-9.351563-9.355468 0-5.15625 4.195313-9.355469 9.351563-9.355469zm0 0"/><path d="m19.929688 197.640625c5.421874-1.039063 8.976562-6.28125 7.933593-11.703125l-.050781-.265625c-1.039062-5.425781-6.28125-8.976563-11.703125-7.9375-5.421875 1.042969-8.976563 6.28125-7.9375 11.703125l.050781.265625c.917969 4.789063 5.109375 8.117187 9.8125 8.117187.621094 0 1.257813-.058593 1.894532-.179687zm0 0"/><path d="m219.40625 164.339844c-11.871094 2.402344-20.832031 12.917968-20.832031 25.480468 0 14.335938 11.664062 26 26 26h5.425781v5.429688c0 14.335938 11.664062 25.996094 26 25.996094s25.996094-11.660156 25.996094-25.996094v-5.429688h5.429687c14.335938 0 26-11.664062 26-26 0-12.566406-8.960937-23.078124-20.832031-25.480468 8.929688-4.203125 17.117188-9.945313 24.210938-17.039063 16.242187-16.242187 25.1875-37.835937 25.1875-60.804687s-8.945313-44.566406-25.1875-60.808594c-16.242188-16.242188-37.839844-25.1875-60.808594-25.1875-22.964844 0-44.558594 8.945312-60.804688 25.1875-16.242187 16.242188-25.1875 37.839844-25.1875 60.808594 0 22.964844 8.945313 44.5625 25.1875 60.804687 7.09375 7.09375 15.28125 12.835938 24.214844 17.039063zm-10.070312-124.507813c12.464843-12.46875 29.039062-19.332031 46.664062-19.332031s34.199219 6.863281 46.664062 19.332031c12.464844 12.464844 19.332032 29.039063 19.332032 46.664063s-6.867188 34.199218-19.332032 46.664062c-9.027343 9.027344-20.359374 15.207032-32.761718 17.863282-4.609375.988281-7.902344 5.0625-7.902344 9.777343v13.023438c0 5.523437 4.476562 10 9.996094 10h15.429687c3.308594 0 6 2.6875 6 5.996093 0 3.3125-2.691406 6-6 6h-15.429687c-5.519532 0-9.996094 4.476563-9.996094 10v15.429688c0 3.308594-2.691406 6-6 6s-6-2.691406-6-6v-15.429688c0-5.523437-4.476562-10-10-10h-15.425781c-3.308594 0-6-2.6875-6-6 0-3.308593 2.691406-5.996093 6-5.996093h15.425781c5.523438 0 10-4.476563 10-10v-13.023438c0-4.714843-3.292969-8.789062-7.902344-9.777343-12.40625-2.65625-23.734375-8.835938-32.761718-17.863282-12.46875-12.464844-19.332032-29.039062-19.332032-46.664062 0-17.628906 6.863282-34.199219 19.332032-46.664063zm0 0"/><path d="m256 140.492188c14.425781 0 27.984375-5.617188 38.179688-15.8125 10.199218-10.199219 15.816406-23.757813 15.816406-38.183594 0-14.425782-5.617188-27.984375-15.816406-38.183594-10.195313-10.199219-23.753907-15.8125-38.179688-15.8125s-27.984375 5.617188-38.183594 15.8125c-10.199218 10.199219-15.8125 23.757812-15.8125 38.183594 0 14.425781 5.613282 27.984375 15.8125 38.183594 10.199219 10.195312 23.757813 15.8125 38.183594 15.8125zm-24.042969-78.039063c6.421875-6.417969 14.960938-9.957031 24.042969-9.957031s17.621094 3.539062 24.039062 9.957031c6.421876 6.421875 9.957032 14.960937 9.957032 24.042969 0 9.082031-3.535156 17.621094-9.957032 24.039062-6.417968 6.421875-14.957031 9.957032-24.039062 9.957032s-17.621094-3.535157-24.042969-9.957032c-6.421875-6.417968-9.957031-14.957031-9.957031-24.039062 0-9.082032 3.539062-17.621094 9.957031-24.042969zm0 0"/></svg>