<svg id="Layer_1" enable-background="new 0 0 512 512" height="512" viewBox="0 0 512 512" width="512" xmlns="http://www.w3.org/2000/svg"><g><path d="m246.782 38.207-245.34 424.942c-4.097 7.096 1.024 15.965 9.218 15.965h490.681c8.193 0 13.314-8.87 9.218-15.965l-245.341-424.942c-4.097-7.096-14.339-7.096-18.436 0z" fill="#fed22b"/><path d="m59.136 435.332 192.403-333.252c1.983-3.434 6.939-3.434 8.922 0l192.403 333.252c1.983 3.434-.496 7.726-4.461 7.726h-384.806c-3.965 0-6.443-4.292-4.461-7.726z" fill="#f0a70a"/><g><g><path d="m256 335.325c-8.534 0-15.453-6.918-15.453-15.453v-109.028c0-8.534 6.919-15.453 15.453-15.453s15.453 6.919 15.453 15.453v109.028c0 8.534-6.919 15.453-15.453 15.453z" fill="#444145"/></g><circle cx="256" cy="384.258" fill="#444145" r="18.543"/></g><path d="m99.649 443.06h-36.056c-3.966 0-6.439-4.296-4.461-7.726l192.407-333.253c1.978-3.43 6.943-3.43 8.921 0l13.567 23.498-178.838 309.755c-1.978 3.43.494 7.726 4.46 7.726z" fill="#e38803"/></g></svg>